<?xml version="1.0" encoding="utf-8"?>
<!-- Generator: Adobe Illustrator 16.0.3, SVG Export Plug-In . SVG Version: 6.00 Build 0)  -->
<!DOCTYPE svg PUBLIC "-//W3C//DTD SVG 1.1//EN" "http://www.w3.org/Graphics/SVG/1.1/DTD/svg11.dtd">
<svg version="1.1" xmlns="http://www.w3.org/2000/svg" xmlns:xlink="http://www.w3.org/1999/xlink" x="0px" y="0px" width="1010px"
	 height="300px" viewBox="0 0 1010 300" enable-background="new 0 0 1010 300" xml:space="preserve">
<g id="Calque_2">
	<rect x="38.535" y="11.134" fill="#8FADDB" width="145.99" height="220.327"/>
</g>
<g id="Calque_1">
	<g>
		<path fill="#3B62AC" d="M184.71,11.134h29.493v220.327h-31.701V60.025l-67.739,85.166h-5.835L40.401,60.025v171.436H8.858V11.134
			H38.72l73.212,90.489L184.71,11.134z"/>
		<path fill="#3B62AC" d="M372.391,231.461v-19.083c-19.241,16.192-39.798,24.288-61.667,24.288
			c-15.877,0-28.285-4.021-37.221-12.064c-8.938-8.045-13.406-17.901-13.406-29.572c0-12.826,5.887-24.024,17.664-33.594
			c11.774-9.566,28.965-14.352,51.573-14.352c6.097,0,12.721,0.395,19.872,1.184c7.149,0.787,14.877,2.025,23.184,3.705v-21.449
			c0-7.254-3.366-13.563-10.094-18.925c-6.73-5.362-16.824-8.043-30.281-8.043c-10.306,0-24.761,2.997-43.372,8.99
			c-3.366,1.052-5.52,1.577-6.466,1.577c-1.683,0-3.13-0.631-4.337-1.893c-1.21-1.262-1.814-2.839-1.814-4.731
			c0-1.787,0.525-3.206,1.577-4.258c1.471-1.577,7.413-3.731,17.822-6.466c16.402-4.416,28.808-6.624,37.221-6.624
			c16.718,0,29.754,4.128,39.113,12.381c9.357,8.255,14.037,17.585,14.037,27.994v87.689h17.664c3.258,0,5.572,0.607,6.939,1.814
			c1.365,1.21,2.05,2.814,2.05,4.811c0,1.893-0.685,3.469-2.05,4.73c-1.368,1.262-3.682,1.893-6.939,1.893H372.391z
			 M372.391,165.537c-6.205-1.787-12.775-3.101-19.714-3.943c-6.939-0.84-14.249-1.262-21.922-1.262
			c-19.241,0-34.278,4.154-45.106,12.459c-8.201,6.205-12.302,13.618-12.302,22.238c0,7.992,3.127,14.722,9.384,20.188
			c6.254,5.469,15.377,8.201,27.364,8.201c11.459,0,22.104-2.287,31.937-6.861c9.83-4.572,19.951-11.853,30.36-21.843V165.537z"/>
		<path fill="#3B62AC" d="M542.152,94.88v123.333h52.046c3.258,0,5.572,0.607,6.939,1.814c1.365,1.21,2.05,2.814,2.05,4.811
			c0,1.893-0.685,3.469-2.05,4.73c-1.368,1.262-3.682,1.893-6.939,1.893h-117.34c-3.154,0-5.417-0.631-6.782-1.893
			c-1.368-1.262-2.05-2.838-2.05-4.73c0-1.996,0.683-3.601,2.05-4.811c1.365-1.207,3.627-1.814,6.782-1.814h52.046V108.286h-38.64
			c-3.154,0-5.441-0.631-6.86-1.893c-1.42-1.262-2.129-2.839-2.129-4.731c0-1.996,0.683-3.627,2.05-4.889
			c1.365-1.262,3.679-1.893,6.939-1.893H542.152z M541.679,26.905v34.224h-19.557V26.905H541.679z"/>
		<path fill="#3B62AC" d="M734.668,33.529v184.684h52.046c3.258,0,5.572,0.607,6.939,1.814c1.365,1.21,2.05,2.814,2.05,4.811
			c0,1.893-0.685,3.469-2.05,4.73c-1.368,1.262-3.682,1.893-6.939,1.893h-117.34c-3.154,0-5.417-0.631-6.782-1.893
			c-1.368-1.262-2.05-2.838-2.05-4.73c0-1.996,0.683-3.601,2.05-4.811c1.365-1.207,3.627-1.814,6.782-1.814h52.046V46.935h-38.167
			c-3.154,0-5.441-0.631-6.861-1.893c-1.419-1.262-2.129-2.891-2.129-4.889c0-1.893,0.683-3.47,2.05-4.731
			c1.365-1.262,3.679-1.893,6.939-1.893H734.668z"/>
		<path fill="#3B62AC" d="M913.496,231.461l-61.508-123.175h-3.943c-3.154,0-5.416-0.631-6.781-1.893
			c-1.369-1.262-2.051-2.839-2.051-4.731c0-1.365,0.34-2.602,1.025-3.707c0.682-1.104,1.576-1.893,2.682-2.365
			c1.104-0.474,2.811-0.71,5.125-0.71h36.273c3.154,0,5.414,0.631,6.783,1.893c1.365,1.262,2.049,2.893,2.049,4.889
			c0,1.893-0.684,3.47-2.049,4.731c-1.369,1.262-3.629,1.893-6.783,1.893h-17.82l54.096,108.665L973.9,108.286h-17.82
			c-3.154,0-5.418-0.631-6.783-1.893c-1.367-1.262-2.049-2.891-2.049-4.889c0-1.893,0.682-3.47,2.049-4.731
			c1.365-1.262,3.629-1.893,6.783-1.893h36.115c3.258,0,5.572,0.631,6.939,1.893c1.365,1.262,2.051,2.893,2.051,4.889
			c0,1.368-0.422,2.629-1.262,3.785c-0.842,1.158-1.789,1.92-2.838,2.287c-1.053,0.37-3.998,0.552-8.832,0.552l-83.904,170.806
			h20.66c3.154,0,5.414,0.604,6.781,1.813c1.365,1.208,2.051,2.813,2.051,4.811c0,1.893-0.686,3.471-2.051,4.732
			c-1.367,1.262-3.627,1.893-6.781,1.893h-76.334c-3.154,0-5.416-0.607-6.781-1.814c-1.369-1.21-2.051-2.814-2.051-4.811
			c0-1.998,0.682-3.603,2.051-4.811c1.365-1.209,3.627-1.813,6.781-1.813h41.479L913.496,231.461z"/>
	</g>
	<polygon fill="none" points="8.858,11.134 38.72,11.134 111.932,101.623 184.71,11.134 214.203,11.134 214.203,20 114.763,145.191 
		108.928,145.191 8.858,21.25 	"/>
</g>
<g id="Calque_4">
</g>
<g id="Calque_3">
	<polygon fill="#264E9D" points="8.858,11.134 38.72,11.134 111.932,101.623 184.71,11.134 214.203,11.134 214.203,20 
		114.763,145.191 108.928,145.191 8.858,21.25 	"/>
</g>
</svg>
